<?xml version="1.0" standalone="no"?>
<!DOCTYPE svg PUBLIC "-//W3C//DTD SVG 20010904//EN"
 "http://www.w3.org/TR/2001/REC-SVG-20010904/DTD/svg10.dtd">
<svg version="1.0" xmlns="http://www.w3.org/2000/svg"
 width="800.000000pt" height="800.000000pt" viewBox="0 0 800.000000 800.000000"
 preserveAspectRatio="xMidYMid meet">
<metadata>
Created by potrace 1.14, written by Peter Selinger 2001-2017
</metadata>
<g transform="translate(0.000000,800.000000) scale(0.100000,-0.100000)"
fill="#000000" stroke="none">
<path d="M4058 7369 c-4 -13 -98 -20 -98 -7 0 4 -7 8 -15 8 -8 0 -15 -4 -15
-10 0 -5 -5 -10 -11 -10 -5 0 -8 4 -5 9 7 10 -56 4 -63 -7 -3 -4 -13 -8 -21
-10 -8 -2 -16 -8 -18 -13 -2 -5 -8 -9 -13 -9 -6 0 -8 4 -5 9 12 19 -74 24
-103 6 -10 -5 -16 -4 -19 3 -2 7 -10 12 -19 12 -12 0 -12 -2 1 -16 25 -24 19
-37 -6 -14 -23 22 -48 27 -48 9 0 -5 4 -8 9 -5 4 3 17 -2 27 -10 16 -13 16
-15 2 -10 -13 4 -16 1 -12 -12 4 -10 -2 -7 -15 8 -11 14 -21 29 -21 33 0 5 -5
5 -10 2 -8 -5 -7 -12 2 -23 9 -12 6 -11 -10 2 -26 23 -42 14 -24 -14 10 -16 9
-18 -3 -14 -8 4 -15 13 -15 21 0 13 -3 13 -15 3 -20 -17 -19 -5 2 16 16 15 15
16 -18 9 -19 -4 -40 -12 -47 -18 -9 -7 -11 -6 -7 5 4 9 -4 21 -19 32 -16 10
-26 12 -26 5 0 -6 -7 -8 -16 -5 -8 3 -12 2 -9 -4 3 -6 1 -10 -5 -10 -7 0 -10
-7 -6 -15 3 -8 1 -15 -4 -15 -6 0 -10 6 -10 13 0 8 -3 9 -8 1 -7 -11 -45 -34
-56 -34 -3 0 -6 8 -6 18 0 13 -2 14 -9 4 -4 -7 -14 -14 -22 -16 -8 -1 -30 -7
-49 -13 -19 -6 -52 -14 -72 -18 -21 -3 -38 -10 -38 -15 0 -6 -6 -10 -14 -10
-7 0 -19 -7 -26 -15 -7 -8 -16 -12 -21 -9 -5 3 -38 -15 -74 -40 -35 -25 -69
-46 -75 -46 -6 0 -15 -12 -20 -26 -6 -14 -14 -23 -18 -20 -5 3 -14 -10 -22
-28 -9 -25 -17 -32 -31 -29 -11 3 -19 0 -19 -6 0 -6 5 -11 10 -11 7 0 7 -6 0
-20 -6 -10 -10 -23 -9 -27 5 -31 -2 -44 -22 -38 -15 5 -22 2 -26 -14 -3 -11
-13 -23 -22 -26 -24 -7 -63 -62 -50 -70 6 -4 7 -11 0 -18 -5 -7 -12 -34 -16
-62 -4 -27 -16 -62 -26 -76 -10 -14 -16 -29 -12 -33 3 -3 1 -6 -6 -6 -9 0 -11
-8 -8 -21 3 -12 2 -29 -3 -38 -25 -46 -44 -134 -46 -211 -1 -47 -7 -105 -14
-129 -6 -23 -9 -49 -7 -55 3 -7 2 -31 -3 -54 -4 -23 -5 -42 -1 -42 3 0 6 -46
5 -103 0 -56 3 -107 7 -113 5 -5 10 -54 13 -109 3 -58 10 -101 16 -105 7 -4
11 -20 10 -36 -1 -16 -1 -45 0 -64 1 -29 3 -32 10 -15 7 16 9 17 9 3 1 -17 57
-142 76 -167 5 -8 26 -30 45 -49 33 -34 35 -39 35 -104 0 -55 -4 -72 -17 -82
-20 -14 -24 -36 -8 -36 6 0 10 -9 10 -21 0 -13 4 -18 12 -13 8 5 9 2 5 -9 -3
-9 -1 -19 5 -23 7 -4 8 -3 4 4 -4 7 -3 12 1 12 5 0 9 136 10 303 1 290 2 305
23 348 16 33 21 62 21 119 0 44 -4 76 -10 78 -6 2 -9 7 -6 12 2 4 6 31 8 59 4
45 2 50 -11 39 -13 -11 -14 -10 -3 10 6 12 16 22 21 22 6 0 10 5 10 11 0 5 -4
8 -9 5 -5 -3 -8 6 -8 20 0 13 1 23 3 21 3 -2 22 14 44 36 24 24 46 37 55 34 8
-4 17 -2 20 4 4 5 10 7 14 5 4 -3 44 3 90 13 l82 18 21 -41 c26 -53 67 -96 90
-96 10 0 18 1 18 3 0 18 75 175 94 198 14 17 26 28 26 25 0 -3 16 2 35 10 19
7 57 14 85 14 27 0 50 4 50 10 0 5 7 6 17 3 12 -5 14 -3 8 7 -6 9 -4 11 5 5
16 -10 38 -12 198 -21 67 -3 122 -2 122 3 0 4 16 9 35 11 20 1 62 11 93 23 31
11 65 21 74 23 10 1 21 5 24 9 4 4 17 4 29 1 13 -3 26 -1 29 5 4 5 12 8 19 5
7 -2 30 2 50 11 24 10 51 13 79 9 24 -3 58 -6 76 -5 19 0 49 -6 68 -14 19 -8
34 -11 34 -8 0 3 6 0 14 -6 7 -6 31 -12 52 -13 22 0 46 -7 54 -14 9 -7 24 -11
35 -10 11 2 26 -1 33 -7 8 -6 12 -6 12 2 0 8 6 7 16 -3 8 -9 22 -16 30 -16 8
0 14 -6 15 -12 1 -7 5 -2 9 12 5 15 8 19 9 8 1 -9 10 -20 22 -23 28 -9 79 -61
79 -81 0 -10 5 -14 16 -10 8 3 12 2 9 -4 -6 -10 0 -18 45 -55 13 -11 20 -14
16 -7 -4 6 -3 12 2 12 15 0 61 -40 74 -63 11 -21 10 -21 -7 -7 -17 14 -18 13
-12 -2 4 -12 1 -16 -13 -13 -13 3 -17 -1 -13 -11 6 -17 -9 -18 -25 -2 -9 9
-12 9 -12 -3 0 -9 -7 -30 -16 -47 -11 -23 -12 -36 -5 -51 13 -23 14 -42 2 -23
-5 8 -6 -8 -4 -40 3 -41 2 -50 -7 -38 -10 13 -11 13 -6 0 3 -8 9 -23 12 -32 4
-10 12 -18 20 -18 8 0 11 -6 8 -15 -4 -8 -1 -15 5 -15 6 0 11 -5 11 -10 0 -6
9 -29 19 -53 36 -78 61 -161 62 -207 1 -60 22 -157 34 -156 5 1 10 -10 10 -24
1 -14 2 -44 3 -68 2 -53 22 -47 22 6 1 41 32 117 44 105 4 -4 4 0 1 8 -4 10 5
28 24 47 17 17 31 35 31 40 0 5 6 15 13 21 17 14 46 146 53 241 1 19 3 37 4
40 1 3 2 8 1 13 0 4 3 7 7 7 4 0 5 26 2 58 -4 31 -6 75 -4 97 1 22 -6 64 -17
93 -10 28 -16 52 -12 52 4 0 -3 10 -14 23 -40 44 -43 58 -18 96 26 42 25 96
-3 117 -12 9 -13 13 -3 14 9 0 11 6 6 18 -6 15 -9 30 -14 68 0 7 -10 14 -20
17 -14 3 -18 11 -15 24 3 11 -2 25 -10 33 -15 11 -15 14 1 25 16 12 16 14 0
29 -9 10 -17 24 -17 32 0 8 -6 14 -14 14 -16 0 -42 28 -33 36 3 3 15 0 27 -6
16 -9 25 -9 36 1 17 14 18 46 2 52 -10 4 -10 6 0 6 21 2 14 21 -23 64 -19 22
-35 45 -35 50 0 5 -10 17 -22 28 -13 10 -17 18 -10 19 6 0 12 -4 12 -10 0 -5
4 -10 9 -10 15 0 0 41 -18 48 -9 3 -21 12 -27 20 -16 21 -37 5 -31 -24 2 -13
0 -24 -4 -24 -5 0 -9 26 -9 58 0 31 -5 64 -10 72 -7 11 -10 11 -10 2 0 -7 -4
-11 -10 -7 -13 8 -2 33 17 37 12 2 7 14 -21 47 -22 26 -35 50 -31 59 6 17 -21
52 -41 52 -7 0 -14 5 -16 11 -2 6 -17 12 -33 12 -17 1 -42 15 -62 34 -19 17
-45 34 -59 37 -14 4 -35 16 -47 27 -12 11 -27 17 -35 14 -7 -3 -10 0 -7 6 5 6
-10 10 -42 9 -26 -1 -72 4 -101 11 -39 10 -60 10 -82 2 -25 -9 -28 -8 -23 6 4
14 3 14 -9 1 -19 -22 -201 -26 -218 -5 -7 8 -23 15 -36 15 -12 0 -26 5 -29 11
-4 6 -14 8 -22 5 -8 -3 -11 -1 -8 4 3 6 2 10 -4 10 -5 0 -11 -5 -13 -11z
m-288 -40 c0 -4 -16 -9 -35 -11 -20 -2 -35 0 -35 7 0 5 16 10 35 10 19 0 35
-2 35 -6z m347 -23 c0 -17 -34 -17 -41 0 -3 8 -1 14 5 14 6 0 7 5 4 11 -4 6 1
6 12 -2 11 -6 20 -17 20 -23z m-278 -10 c-5 -6 -17 -5 -31 2 l-23 12 22 -6
c19 -4 22 -2 16 13 -6 15 -5 16 9 3 10 -9 13 -19 7 -24z m61 24 c0 -5 -5 -10
-11 -10 -5 0 -7 5 -4 10 3 6 8 10 11 10 2 0 4 -4 4 -10z m104 -1 c2 -2 -7 -10
-20 -16 -21 -10 -23 -9 -15 1 6 7 8 15 5 19 -3 3 1 4 10 3 8 -1 17 -4 20 -7z
m64 -17 c2 -7 -3 -12 -12 -12 -9 0 -16 7 -16 16 0 17 22 14 28 -4z m557 -32
c4 -6 12 -7 18 -4 8 5 8 2 -1 -7 -10 -11 -15 -10 -29 4 -10 10 -12 17 -6 17 7
0 15 -5 18 -10z m-1001 -16 c3 -8 2 -12 -4 -9 -6 3 -10 10 -10 16 0 14 7 11
14 -7z m286 12 c0 -11 -19 -15 -25 -6 -3 5 1 10 9 10 9 0 16 -2 16 -4z m575
-16 c3 -5 1 -10 -4 -10 -6 0 -11 5 -11 10 0 6 2 10 4 10 3 0 8 -4 11 -10z
m-514 -18 c-7 -2 -18 1 -23 6 -8 8 -4 9 13 5 13 -4 18 -8 10 -11z m619 2 c0
-2 -9 -4 -20 -4 -11 0 -20 4 -20 9 0 5 9 7 20 4 11 -3 20 -7 20 -9z m100 6 c0
-5 -8 -10 -17 -10 -15 0 -16 2 -3 10 19 12 20 12 20 0z m52 -14 c7 4 8 2 4 -5
-9 -13 -26 -5 -25 12 0 9 2 8 6 -1 2 -6 10 -9 15 -6z m-1638 -3 c-5 -5 -12
-12 -16 -18 -4 -6 -8 -2 -8 8 0 9 7 17 17 17 9 0 12 -3 7 -7z m688 -32 c-4
-11 -7 -10 -13 5 -4 10 -8 13 -8 6 -1 -7 -5 -10 -11 -7 -6 4 -5 11 2 19 15 16
38 -2 30 -23z m258 29 c0 -5 -2 -10 -4 -10 -3 0 -8 5 -11 10 -3 6 -1 10 4 10
6 0 11 -4 11 -10z m-310 -10 c0 -5 -5 -10 -11 -10 -5 0 -7 5 -4 10 3 6 8 10
11 10 2 0 4 -4 4 -10z m1117 -42 c-3 -8 -6 -5 -6 6 -1 11 2 17 5 13 3 -3 4
-12 1 -19z m-754 -32 c3 -7 -5 -13 -19 -14 -26 -2 -27 -1 -18 22 6 16 30 12
37 -8z m139 -6 c6 0 9 -3 6 -6 -9 -8 -48 14 -48 27 0 6 7 3 16 -5 8 -9 20 -16
26 -16z m465 13 c-9 -9 -20 -13 -24 -9 -4 4 -1 11 7 16 25 16 35 11 17 -7z
m192 8 c8 -5 9 -11 3 -15 -5 -3 -15 1 -22 9 -14 16 -3 20 19 6z m-54 -31 c3
-5 1 -10 -4 -10 -6 0 -11 5 -11 10 0 6 2 10 4 10 3 0 8 -4 11 -10z m85 -10 c0
-5 -2 -10 -4 -10 -3 0 -8 5 -11 10 -3 6 -1 10 4 10 6 0 11 -4 11 -10z m-809
-27 c13 -16 12 -17 -3 -4 -10 7 -18 15 -18 17 0 8 8 3 21 -13z m169 -35 c0
-12 -6 -9 -26 13 -19 22 -19 22 4 8 12 -8 22 -17 22 -21z m-50 13 c0 -6 -4
-13 -10 -16 -5 -3 -10 1 -10 9 0 9 5 16 10 16 6 0 10 -4 10 -9z m697 3 c-3 -3
-12 -4 -19 -1 -8 3 -5 6 6 6 11 1 17 -2 13 -5z m-562 -44 c3 -5 1 -10 -4 -10
-6 0 -11 5 -11 10 0 6 2 10 4 10 3 0 8 -4 11 -10z m33 -75 c-3 -3 -9 2 -12 12
-6 14 -5 15 5 6 7 -7 10 -15 7 -18z m-1101 -676 c-6 -10 -15 -15 -21 -12 -5 3
-6 2 -3 -4 6 -10 -47 -151 -64 -168 -6 -6 -15 -1 -25 13 -8 12 -19 20 -24 17
-4 -3 -11 2 -14 11 -4 10 -2 13 7 8 6 -4 5 1 -4 12 -24 29 -31 44 -20 44 5 0
12 -8 14 -17 4 -14 5 -14 6 3 1 25 46 58 63 48 7 -4 8 -3 4 4 -4 7 -1 12 7 12
7 0 23 11 35 23 27 29 56 33 39 6z m1753 -103 c0 -3 -4 -8 -10 -11 -5 -3 -10
-1 -10 4 0 6 5 11 10 11 6 0 10 -2 10 -4z m-19 -43 c13 -16 12 -17 -3 -4 -10
7 -18 15 -18 17 0 8 8 3 21 -13z"/>
<path d="M4255 7340 c-3 -5 -2 -10 4 -10 5 0 13 5 16 10 3 6 2 10 -4 10 -5 0
-13 -4 -16 -10z"/>
<path d="M7915 6378 c-38 -5 -113 -21 -165 -35 -146 -40 -219 -53 -288 -53
-48 0 -77 -7 -120 -27 -31 -14 -61 -32 -65 -40 -4 -7 -17 -13 -28 -13 -26 0
-60 -17 -79 -40 -13 -15 -158 -92 -308 -163 -24 -11 -69 -23 -100 -25 -43 -4
-62 -11 -79 -28 -12 -13 -47 -36 -78 -50 -30 -15 -58 -30 -61 -35 -3 -5 -16
-9 -30 -9 -32 0 -79 -35 -174 -130 -160 -160 -174 -170 -221 -170 -47 0 -117
21 -128 37 -11 17 -79 25 -88 11 -9 -15 -49 -35 -76 -40 -10 -2 -17 -6 -15 -9
5 -10 -24 -39 -40 -39 -8 0 -21 8 -28 18 -18 24 -42 7 -59 -41 -15 -44 -8 -51
50 -53 231 -6 350 -5 353 5 5 15 27 14 41 -3 15 -18 285 -31 861 -41 350 -6
764 -15 903 -20 l107 -4 0 505 c0 277 -3 503 -7 502 -5 0 -39 -5 -78 -10z"/>
<path d="M4110 6359 c0 -5 5 -7 10 -4 6 3 10 8 10 11 0 2 -4 4 -10 4 -5 0 -10
-5 -10 -11z"/>
<path d="M4005 5850 c4 -6 11 -8 16 -5 14 9 11 15 -7 15 -8 0 -12 -5 -9 -10z"/>
<path d="M32 5788 l-32 -9 0 -118 c0 -98 3 -120 15 -125 9 -3 102 -6 208 -6
106 0 252 -2 325 -6 118 -5 136 -4 153 12 18 16 20 16 37 1 16 -15 50 -17 283
-15 145 0 291 1 324 0 33 -1 312 -4 621 -8 517 -6 562 -5 567 10 4 10 3 15 -2
11 -5 -3 -32 0 -60 6 -35 7 -52 16 -56 30 -4 11 -10 17 -15 14 -5 -3 -20 1
-33 10 -14 9 -42 15 -63 15 -109 -1 -127 0 -140 11 -10 8 -25 9 -56 1 -32 -8
-63 -7 -118 2 -86 15 -95 16 -170 19 -30 2 -75 9 -99 16 -24 7 -68 11 -98 9
-29 -2 -53 -1 -53 2 0 3 -26 7 -58 8 -32 1 -73 7 -92 12 -18 5 -37 7 -41 4 -5
-3 -14 -2 -21 2 -6 4 -57 9 -112 11 -128 4 -207 9 -226 15 -119 38 -113 38
-305 18 -19 -2 -160 11 -164 16 -2 2 -10 -1 -17 -7 -8 -6 -22 -8 -31 -4 -10 3
-47 8 -82 11 -36 2 -67 8 -70 12 -14 21 -262 36 -319 20z m888 -102 c0 -3 -4
-8 -10 -11 -5 -3 -10 -1 -10 4 0 6 5 11 10 11 6 0 10 -2 10 -4z"/>
<path d="M4375 5660 c-11 -5 -36 -9 -55 -9 -19 -1 -60 -8 -90 -16 -30 -8 -57
-11 -60 -7 -6 9 -39 8 -107 -2 -38 -6 -54 -14 -58 -27 -4 -11 -11 -16 -17 -13
-6 4 -5 10 3 15 9 6 -1 9 -29 9 -32 0 -41 -3 -36 -12 6 -10 4 -10 -8 0 -15 12
-68 9 -90 -4 -4 -3 -5 2 -1 12 5 14 1 15 -25 9 -22 -4 -32 -3 -32 5 0 7 -7 5
-16 -5 -12 -11 -20 -13 -29 -5 -14 12 -115 10 -115 -3 0 -4 -4 -5 -10 -2 -5 3
-29 1 -52 -6 -24 -6 -107 -12 -186 -13 -107 -1 -145 -5 -151 -15 -6 -9 -18
-11 -40 -6 -22 5 -33 3 -36 -7 -3 -8 -13 -15 -23 -16 -82 -9 -117 -19 -117
-32 0 -8 -10 -21 -23 -28 -14 -8 -21 -19 -18 -28 3 -9 1 -12 -4 -9 -18 11 -15
-45 3 -58 8 -6 5 -7 -6 -3 -14 4 -17 0 -15 -22 1 -15 -4 -37 -11 -49 -7 -15
-8 -23 -1 -23 5 0 10 -7 10 -15 0 -17 30 -35 61 -35 18 0 19 -2 9 -15 -8 -10
-22 -13 -39 -9 -20 4 -23 3 -11 -5 8 -6 26 -11 40 -12 14 0 19 -3 13 -6 -26
-10 -12 -21 17 -13 38 11 29 10 100 10 50 0 60 3 60 18 0 10 3 13 8 7 4 -6 43
-11 87 -12 44 -1 82 -3 85 -3 3 -1 -19 -9 -48 -18 -30 -10 -54 -21 -54 -27 0
-18 -20 -35 -42 -36 -11 -1 -3 -5 19 -10 36 -9 117 1 164 19 9 3 12 1 7 -6 -4
-7 -1 -12 8 -12 9 0 16 7 16 15 0 9 10 15 26 15 14 0 23 4 20 9 -3 5 6 9 22
10 15 0 35 1 45 1 10 1 42 13 70 28 29 15 58 28 65 28 34 2 42 5 56 20 10 9
16 11 16 4 0 -7 5 -6 14 3 9 8 16 39 18 72 3 58 3 59 48 83 25 14 64 26 88 27
46 2 61 -12 67 -64 2 -14 7 -48 10 -75 l7 -48 22 21 22 21 20 -20 c19 -19 36
-26 96 -37 16 -3 25 -10 21 -16 -4 -6 0 -8 9 -4 9 3 46 -5 82 -17 61 -22 80
-23 228 -20 88 2 162 5 165 7 2 3 -22 11 -54 20 l-58 15 64 1 c63 1 64 1 45
20 -10 10 -20 14 -22 10 -4 -11 -36 -12 -46 -2 -4 4 -24 6 -44 5 -39 -3 -72
12 -58 25 5 4 11 2 13 -5 7 -19 23 -4 17 16 -4 10 -2 13 3 7 4 -5 35 -11 67
-13 33 -1 64 -6 70 -11 6 -5 31 -8 56 -8 25 0 61 -3 80 -7 l35 -6 -30 14 -30
14 33 1 c17 1 32 5 32 11 0 5 -7 7 -15 4 -8 -4 -32 -3 -53 1 l-37 7 30 13 c19
9 24 14 13 14 -10 1 -18 8 -18 17 0 11 5 14 16 10 14 -5 15 -4 4 9 -10 12 -10
15 4 15 9 0 16 -5 16 -11 0 -7 8 -1 19 12 15 20 20 56 11 79 -1 3 -2 8 -1 13
0 4 -3 7 -8 7 -5 0 -8 15 -7 33 2 34 -26 77 -52 77 -8 0 -12 6 -9 14 6 16 -26
32 -42 22 -5 -3 -30 3 -55 15 -25 11 -50 17 -56 14 -5 -3 -36 2 -70 12 -42 11
-64 13 -68 6 -7 -10 -23 -10 -52 0 -8 3 -24 2 -35 -3z m195 -29 c0 -4 -11 -6
-25 -3 -14 2 -25 6 -25 8 0 2 11 4 25 4 14 0 25 -4 25 -9z m-765 -41 c-3 -5
-10 -10 -16 -10 -5 0 -9 5 -9 10 0 6 7 10 16 10 8 0 12 -4 9 -10z m-630 -40
c3 -5 -3 -10 -15 -10 -12 0 -18 5 -15 10 3 6 10 10 15 10 5 0 12 -4 15 -10z
m1265 -254 c0 -11 -19 -15 -25 -6 -3 5 1 10 9 10 9 0 16 -2 16 -4z m49 -6 c-6
-5 -18 -6 -26 -3 -19 8 -16 11 13 11 17 0 22 -3 13 -8z"/>
<path d="M4687 5629 c7 -7 15 -10 18 -7 3 3 -2 9 -12 12 -14 6 -15 5 -6 -5z"/>
<path d="M5250 5433 c-26 -18 -40 -32 -67 -71 -17 -25 -10 -43 9 -24 7 7 15
12 20 12 13 0 55 -83 66 -130 13 -54 13 -285 1 -320 l-9 -25 20 25 c11 14 19
34 18 45 -3 22 39 115 51 115 28 0 65 166 43 193 -6 7 -9 28 -7 46 5 37 -30
121 -50 121 -7 0 -18 7 -25 15 -16 20 -40 19 -70 -2z"/>
<path d="M620 5399 c0 -5 5 -7 10 -4 6 3 10 8 10 11 0 2 -4 4 -10 4 -5 0 -10
-5 -10 -11z"/>
<path d="M1145 5380 c3 -5 11 -10 16 -10 6 0 7 5 4 10 -3 6 -11 10 -16 10 -6
0 -7 -4 -4 -10z"/>
<path d="M23 5367 c-17 -7 -23 -19 -23 -43 0 -26 4 -32 15 -28 8 4 15 12 15
20 0 9 10 13 28 12 15 -1 42 -1 60 0 31 2 31 3 14 20 -23 23 -79 33 -109 19z"/>
<path d="M1081 5361 c-54 -9 -52 -32 3 -29 30 1 46 6 46 14 0 18 -10 21 -49
15z"/>
<path d="M1275 5349 c-11 -16 -1 -19 13 -3 7 8 8 14 3 14 -5 0 -13 -5 -16 -11z"/>
<path d="M1338 5353 c6 -2 18 -2 25 0 6 3 1 5 -13 5 -14 0 -19 -2 -12 -5z"/>
<path d="M600 5330 c-17 -15 -20 -24 -13 -31 19 -19 48 -6 51 24 4 32 -7 34
-38 7z"/>
<path d="M2556 5331 c-7 -10 -1 -153 9 -228 3 -23 16 -59 30 -79 14 -20 25
-42 25 -48 0 -6 9 -22 20 -36 l20 -25 1 25 c1 14 1 52 0 85 -1 33 5 96 13 140
14 75 14 82 -3 104 -32 46 -102 83 -115 62z"/>
<path d="M5137 5333 c-10 -9 -9 -23 2 -23 5 0 11 7 15 15 5 15 -5 20 -17 8z"/>
<path d="M440 5318 c0 -4 3 -8 8 -9 4 0 17 -2 30 -5 12 -2 22 0 22 5 0 5 -13
11 -30 13 -16 3 -30 1 -30 -4z"/>
<path d="M720 5314 c0 -14 3 -15 12 -6 8 8 15 9 25 0 7 -6 16 -8 20 -4 9 8 2
13 -30 21 -22 6 -27 4 -27 -11z"/>
<path d="M1225 5320 c3 -5 13 -10 21 -10 8 0 12 5 9 10 -3 6 -13 10 -21 10 -8
0 -12 -4 -9 -10z"/>
<path d="M5124 5255 c3 -11 -1 -42 -9 -69 -14 -47 -14 -52 6 -93 19 -39 29
-48 52 -44 4 1 7 -9 6 -21 -3 -39 2 -114 8 -100 2 6 9 10 14 6 5 -3 9 2 9 10
0 9 5 16 10 16 15 0 12 56 -3 69 -8 6 -17 8 -20 4 -4 -3 -7 1 -7 10 0 10 5 17
10 17 6 0 10 9 10 20 0 11 -4 20 -9 20 -4 0 -6 11 -3 25 7 38 -4 66 -44 110
-23 26 -34 33 -30 20z"/>
<path d="M0 5216 c0 -9 40 -13 46 -5 3 5 -6 9 -20 9 -14 0 -26 -2 -26 -4z"/>
<path d="M5091 5174 c0 -11 3 -14 6 -6 3 7 2 16 -1 19 -3 4 -6 -2 -5 -13z"/>
<path d="M640 5166 c0 -9 30 -14 35 -6 4 6 -3 10 -14 10 -12 0 -21 -2 -21 -4z"/>
<path d="M740 5150 c0 -5 7 -10 15 -10 8 0 15 5 15 10 0 6 -7 10 -15 10 -8 0
-15 -4 -15 -10z"/>
<path d="M973 5153 c9 -2 25 -2 35 0 9 3 1 5 -18 5 -19 0 -27 -2 -17 -5z"/>
<path d="M1172 5143 c2 -10 -5 -23 -17 -30 -18 -11 -16 -12 22 -13 34 0 41 3
37 15 -4 8 -1 15 6 15 10 0 10 3 0 15 -18 21 -52 20 -48 -2z"/>
<path d="M213 5138 c-18 -5 -33 -13 -33 -18 0 -17 60 -11 67 5 8 22 3 23 -34
13z"/>
<path d="M290 5130 c-11 -7 -4 -10 25 -10 29 0 36 3 25 10 -8 5 -19 10 -25 10
-5 0 -17 -5 -25 -10z"/>
<path d="M980 5100 c0 -5 9 -10 20 -10 11 0 20 5 20 10 0 6 -9 10 -20 10 -11
0 -20 -4 -20 -10z"/>
<path d="M6328 5098 c17 -8 26 -8 34 0 9 9 4 12 -22 11 -33 0 -34 -1 -12 -11z"/>
<path d="M6458 5103 c6 -2 18 -2 25 0 6 3 1 5 -13 5 -14 0 -19 -2 -12 -5z"/>
<path d="M3 5053 c0 -22 3 -23 78 -23 44 0 79 4 79 10 0 5 7 6 17 3 11 -4 14
-3 9 5 -5 8 0 12 13 12 12 0 21 4 21 9 0 5 -48 9 -109 8 -105 -2 -108 -3 -108
-24z"/>
<path d="M380 5050 c0 -5 5 -10 10 -10 6 0 10 5 10 10 0 6 -4 10 -10 10 -5 0
-10 -4 -10 -10z"/>
<path d="M7731 5051 c-11 -7 -10 -11 6 -19 25 -14 56 3 33 18 -18 12 -21 12
-39 1z"/>
<path d="M999 5039 c-22 -13 -2 -22 28 -12 25 9 26 10 6 15 -11 3 -27 2 -34
-3z"/>
<path d="M241 5031 c-22 -14 -3 -31 35 -31 36 0 42 8 22 28 -14 14 -37 15 -57
3z"/>
<path d="M935 5030 c3 -5 15 -10 26 -10 10 0 19 5 19 10 0 6 -12 10 -26 10
-14 0 -23 -4 -19 -10z"/>
<path d="M7658 5033 c7 -3 16 -2 19 1 4 3 -2 6 -13 5 -11 0 -14 -3 -6 -6z"/>
<path d="M76 4962 c-14 -13 -4 -22 25 -22 16 0 28 4 25 9 -7 11 -43 21 -50 13z"/>
<path d="M2751 4944 c0 -11 3 -14 6 -6 3 7 2 16 -1 19 -3 4 -6 -2 -5 -13z"/>
<path d="M490 4940 c8 -5 22 -10 30 -10 13 0 13 1 0 10 -8 5 -22 10 -30 10
-13 0 -13 -1 0 -10z"/>
<path d="M664 4942 c7 -12 76 -14 76 -2 0 5 -18 10 -41 10 -22 0 -38 -4 -35
-8z"/>
<path d="M2162 4934 c-14 -10 -13 -13 8 -24 27 -14 233 -16 271 -1 l24 9 -26
7 c-54 14 -261 21 -277 9z"/>
<path d="M3630 4939 c0 -5 5 -7 10 -4 6 3 10 8 10 11 0 2 -4 4 -10 4 -5 0 -10
-5 -10 -11z"/>
<path d="M1815 4930 c3 -5 17 -10 31 -10 13 0 24 5 24 10 0 6 -14 10 -31 10
-17 0 -28 -4 -24 -10z"/>
<path d="M3572 4903 c-18 -19 -49 -44 -70 -55 -20 -11 -50 -27 -65 -35 -15 -8
-35 -12 -43 -9 -9 4 -12 2 -8 -5 3 -6 -10 -26 -30 -45 -20 -19 -34 -39 -31
-44 3 -6 0 -10 -7 -10 -7 0 -26 -14 -42 -31 -16 -16 -35 -28 -42 -25 -7 3 -16
1 -19 -3 -3 -5 -14 -7 -25 -4 -14 4 -24 -3 -37 -26 -10 -17 -23 -31 -30 -31
-7 0 -16 -7 -21 -16 -8 -14 -15 -15 -41 -6 -25 9 -34 8 -46 -5 -9 -9 -14 -22
-11 -29 3 -7 0 -17 -7 -21 -7 -5 -12 -28 -12 -53 0 -32 -4 -44 -13 -42 -8 1
-11 -2 -7 -8 3 -5 1 -10 -6 -10 -9 0 -10 -3 -3 -10 14 -14 5 -88 -12 -94 -9
-4 -14 2 -15 17 0 21 -1 21 -10 -3 -8 -19 -7 -27 5 -36 8 -6 16 -27 18 -47 1
-19 6 -33 10 -31 4 3 8 0 8 -6 0 -6 4 -9 8 -6 5 3 9 -8 10 -24 0 -16 -6 -31
-14 -34 -11 -4 -12 -2 -4 14 15 27 -4 33 -26 8 -11 -12 -14 -18 -7 -14 8 4 8
-2 -2 -21 -8 -14 -20 -28 -28 -29 -57 -8 -343 -236 -472 -375 -38 -41 -112
-121 -166 -179 -53 -58 -125 -140 -160 -184 -42 -52 -84 -93 -128 -121 -36
-23 -83 -56 -104 -73 -21 -17 -48 -34 -59 -38 -12 -3 -42 -19 -68 -34 -26 -15
-62 -31 -81 -35 -57 -12 -143 -61 -180 -102 -20 -22 -42 -37 -52 -35 -9 2 -31
-4 -49 -12 -41 -21 -53 -20 -69 4 -13 19 -17 20 -67 8 -42 -10 -54 -18 -59
-37 -8 -32 9 -56 40 -56 l25 1 -28 -29 c-15 -15 -56 -39 -91 -51 -35 -13 -86
-33 -114 -44 -27 -11 -97 -30 -155 -43 -92 -20 -113 -28 -166 -68 -68 -51
-100 -86 -166 -181 -25 -36 -84 -118 -132 -184 -47 -65 -134 -191 -193 -280
-59 -88 -128 -194 -155 -234 l-48 -73 0 -809 0 -810 2840 0 2840 0 0 80 c0 50
4 80 11 80 6 0 10 -12 9 -27 -1 -16 -2 -52 -1 -80 l1 -53 250 0 c196 0 249 3
244 13 -6 9 -5 9 7 0 12 -10 217 -13 907 -13 l892 0 0 282 0 283 -51 115 c-28
63 -65 158 -83 210 -19 52 -62 165 -96 250 -34 85 -77 196 -95 245 -80 219
-231 484 -313 549 -13 10 -35 31 -50 46 -15 15 -58 54 -97 86 -38 32 -90 80
-115 105 -148 153 -374 323 -546 411 -46 24 -84 47 -84 51 0 16 32 19 49 3 10
-9 27 -16 38 -16 30 0 73 38 73 64 0 23 -37 66 -58 66 -6 0 -9 7 -6 15 4 8 12
15 19 15 39 0 15 76 -32 101 -19 10 -28 10 -43 1 -11 -7 -25 -12 -32 -12 -20
0 -88 104 -82 126 5 24 -10 49 -25 40 -6 -4 -11 -18 -11 -32 0 -13 -4 -24 -10
-24 -15 0 -12 66 3 79 8 6 17 8 20 4 34 -33 -37 97 -111 207 -82 119 -168 203
-248 240 -34 15 -79 43 -100 62 -111 100 -208 144 -358 164 -54 7 -102 16
-106 21 -4 4 -29 40 -55 78 -27 39 -76 97 -109 131 -51 50 -72 63 -122 77 -33
9 -82 17 -108 17 l-47 0 5 34 c4 26 0 39 -18 59 -21 23 -22 28 -10 44 12 17
13 16 14 -7 1 -23 1 -24 15 -7 12 16 11 21 -6 38 -10 10 -16 25 -13 33 3 8 0
17 -6 21 -6 3 -10 3 -9 -2 1 -4 1 -23 0 -40 -1 -37 -16 -44 -24 -13 -3 11 -15
24 -28 28 -22 9 -22 9 -2 23 17 12 20 21 14 54 -5 30 -8 35 -14 22 -4 -10 -11
-16 -16 -13 -5 4 -13 -6 -18 -21 -8 -22 -11 -24 -16 -10 -3 9 -3 17 2 17 4 0
5 14 3 31 -4 24 -8 30 -24 26 -16 -4 -17 -3 -7 9 6 8 8 14 3 14 -4 0 -3 5 4
12 7 7 12 19 12 27 -1 13 -4 12 -15 -3 -14 -19 -15 -19 -15 5 0 14 6 31 13 38
9 11 9 13 0 7 -9 -5 -12 -1 -11 11 3 39 -2 74 -11 68 -5 -3 -13 4 -16 16 -4
13 -12 18 -22 15 -9 -4 -30 5 -48 18 -18 14 -35 22 -38 19 -8 -7 -67 17 -67
28 0 4 -8 10 -18 13 -9 3 -26 22 -36 41 -11 21 -27 35 -38 35 -10 0 -18 6 -18
14 0 13 -27 31 -42 28 -5 -1 -8 3 -8 9 0 5 -4 7 -10 4 -5 -3 -10 -1 -10 6 0 7
-3 10 -6 6 -3 -3 -24 5 -45 19 -21 13 -42 24 -47 24 -4 0 -17 7 -28 15 -19 15
-19 15 1 9 16 -5 17 -4 5 5 -8 6 -25 11 -36 11 -12 0 -27 6 -33 14 -14 17 -61
27 -61 14 0 -6 10 -24 22 -40 13 -19 22 -47 22 -72 l1 -41 -60 -7 c-100 -14
-109 -15 -130 -22 -11 -4 -29 -12 -39 -18 -11 -6 -52 -11 -91 -12 -39 -1 -76
-5 -82 -9 -7 -4 -20 -3 -30 2 -52 28 -107 41 -153 36 -108 -10 -123 21 -68
141 6 12 8 28 6 37 -2 12 -11 7 -36 -20z m741 -260 c-7 -2 -13 -12 -12 -21 0
-12 2 -13 6 -4 4 10 9 9 24 -4 18 -16 19 -16 19 0 0 9 5 14 10 11 6 -4 8 -11
4 -16 -3 -5 0 -17 7 -25 10 -12 10 -20 1 -35 -8 -13 -9 -19 -1 -19 6 0 8 -8 4
-20 -5 -14 -2 -20 9 -20 9 0 16 -8 16 -17 0 -15 -2 -16 -10 -3 -8 13 -10 12
-10 -2 0 -30 -20 -20 -20 10 -1 24 -2 25 -11 9 -6 -10 -8 -24 -6 -31 4 -10 -9
-13 -49 -13 -30 0 -54 3 -54 6 0 3 -24 5 -52 3 -74 -3 -138 7 -135 21 4 21 37
39 71 39 18 0 39 4 46 8 9 6 19 2 28 -8 13 -16 13 -16 8 1 -4 11 -2 16 5 11 6
-3 9 -14 6 -24 -3 -12 0 -17 9 -13 7 2 10 12 7 21 -5 11 -2 14 9 9 11 -4 18 1
21 14 3 11 0 22 -6 25 -7 2 -13 23 -13 47 -1 23 0 34 3 25 5 -20 12 -22 33 -8
12 8 12 10 -5 10 -17 0 -17 2 -5 10 8 5 24 9 35 9 11 0 14 -3 8 -6z m-741 -25
c10 -10 18 -21 19 -25 0 -5 10 -7 21 -5 19 2 18 -1 -8 -23 -25 -21 -30 -23
-33 -9 -2 13 -5 14 -11 4 -10 -15 -33 21 -39 59 0 5 -10 7 -21 4 -11 -3 -20
-1 -20 3 0 17 73 11 92 -8z m-58 -56 c-6 -4 -14 -14 -17 -22 -4 -10 -6 -8 -6
8 -1 15 5 22 17 22 10 0 13 -3 6 -8z m713 -24 c-3 -8 -6 -5 -6 6 -1 11 2 17 5
13 3 -3 4 -12 1 -19z m-1177 2 c0 -5 -2 -10 -4 -10 -3 0 -8 5 -11 10 -3 6 -1
10 4 10 6 0 11 -4 11 -10z m493 -24 c-3 -5 -1 -6 5 -2 8 5 10 -3 5 -26 -9 -48
-21 -68 -38 -62 -11 5 -12 10 -2 25 10 16 9 21 -2 28 -14 9 -6 51 13 63 12 8
27 -12 19 -26z m76 17 c-8 -10 -18 -21 -24 -25 -5 -4 6 -6 25 -6 19 0 40 4 46
9 7 6 9 -1 6 -21 -4 -25 -1 -29 13 -24 12 5 13 9 4 14 -7 5 -1 7 15 7 23 -2
27 -6 23 -24 -5 -28 0 -29 22 -5 23 25 56 49 47 35 -10 -18 53 -43 77 -31 10
5 17 5 17 0 0 -5 21 -7 48 -4 44 4 58 -4 16 -11 -10 -1 -24 -6 -30 -9 -5 -4
-27 -3 -47 2 -20 4 -37 5 -37 1 0 -3 -10 -6 -22 -7 -13 0 -52 -3 -86 -7 -35
-4 -69 -4 -75 0 -6 4 -20 8 -31 9 -12 1 -30 4 -41 7 -11 2 -24 -1 -28 -7 -4
-6 -4 2 -1 19 4 16 7 42 7 57 0 15 4 25 8 22 4 -2 10 0 14 6 3 5 15 10 27 10
18 0 19 -2 7 -17z m-172 -65 c-3 -8 -6 -5 -6 6 -1 11 2 17 5 13 3 -3 4 -12 1
-19z m37 -20 c3 -16 2 -28 -3 -28 -5 0 -11 16 -13 35 -5 39 6 34 16 -7z m543
19 c-5 -17 -37 -21 -37 -5 0 8 9 14 21 15 12 1 19 -3 16 -10z m99 -128 c7 -13
44 -11 44 2 0 5 -5 7 -12 3 -6 -4 -8 -3 -5 2 3 5 18 11 34 12 30 2 33 -4 33
-67 l0 -25 25 24 c16 15 29 20 35 14 14 -14 -13 -60 -33 -56 -14 2 -37 -31
-37 -54 0 -12 40 -1 60 16 21 18 35 24 43 18 2 -2 10 2 18 9 8 6 24 11 34 9
11 -2 22 0 25 3 3 3 24 23 47 43 23 20 39 39 35 42 -3 3 2 6 11 6 17 0 19 -20
3 -31 -15 -11 5 -30 24 -24 10 3 28 0 39 -7 17 -11 24 -9 45 11 14 13 23 27
21 32 -3 4 3 6 12 5 11 -2 19 -13 21 -30 2 -14 8 -24 13 -21 5 4 9 -3 9 -14 0
-10 -5 -21 -12 -23 -7 -3 -11 -24 -9 -57 1 -44 -1 -50 -13 -39 -8 7 -12 16
-10 19 2 4 -5 9 -15 12 -19 5 -41 -26 -41 -58 0 -7 -5 -15 -11 -17 -9 -3 -8
-11 1 -28 11 -21 11 -23 -1 -13 -11 9 -14 7 -15 -10 0 -12 -4 -31 -9 -41 -6
-14 -5 -17 3 -12 18 11 3 -25 -23 -54 -33 -37 -47 -67 -35 -75 8 -5 8 -11 1
-19 -6 -7 -8 -16 -4 -19 3 -4 1 -7 -5 -7 -7 0 -12 5 -12 11 0 6 -6 9 -14 6 -8
-3 -17 -1 -20 6 -2 7 -4 1 -3 -13 1 -14 8 -31 15 -38 6 -7 12 -19 12 -25 0 -6
-7 -1 -16 11 -8 12 -23 22 -33 22 -9 0 -23 6 -30 13 -11 10 -12 9 -6 -2 4 -7
8 -23 9 -34 1 -11 6 -22 13 -24 8 -3 11 3 8 17 -2 12 0 18 6 14 6 -3 9 -14 6
-24 -2 -9 -1 -24 4 -32 4 -7 3 -20 -3 -28 -8 -13 -9 -13 -5 1 3 9 1 22 -4 30
-5 8 -9 9 -9 2 0 -6 -9 -9 -22 -5 -16 4 -19 2 -13 -8 6 -9 4 -12 -6 -8 -11 4
-13 -5 -10 -44 2 -35 0 -48 -8 -44 -6 4 -14 1 -17 -7 -3 -9 -13 -13 -26 -9
-17 4 -20 2 -15 -11 4 -10 2 -17 -3 -17 -6 0 -10 -8 -11 -17 0 -16 -1 -16 -8
1 -5 14 -10 16 -15 8 -4 -7 -12 -9 -19 -5 -25 15 -59 9 -70 -14 -6 -13 -16
-23 -24 -23 -7 0 -13 -12 -14 -27 -1 -18 -3 -21 -6 -10 -2 9 -9 15 -14 12 -5
-4 -9 -1 -9 6 0 8 -6 7 -17 -4 -15 -12 -20 -13 -30 -2 -6 7 -9 17 -5 21 4 5
-2 2 -13 -7 -28 -23 -86 -33 -79 -14 5 11 -5 13 -51 11 -35 -2 -52 0 -44 5 10
6 7 9 -10 9 -16 0 -21 4 -17 15 5 13 2 13 -19 -1 -30 -20 -32 -28 -5 -19 11 3
20 2 20 -3 0 -8 -35 -23 -49 -21 -2 0 -7 -5 -12 -12 -5 -9 -10 -4 -15 15 -6
24 -10 26 -36 20 -23 -4 -29 -3 -23 6 5 8 1 11 -11 8 -14 -3 -18 -11 -17 -33
l2 -30 -19 30 c-11 17 -20 36 -20 43 0 15 -14 15 -43 1 -21 -10 -21 -9 -3 5
17 14 17 16 3 30 -20 20 -28 20 -21 1 4 -8 1 -15 -6 -15 -6 0 -8 5 -5 10 3 6
-1 13 -9 16 -11 4 -13 11 -6 30 10 25 7 28 -24 24 -11 -1 -16 3 -11 10 4 7 -2
14 -15 17 -17 5 -20 11 -15 30 7 29 -1 44 -20 37 -8 -4 -13 -9 -11 -13 3 -4 0
-13 -6 -21 -8 -12 -9 -12 -4 3 3 9 1 17 -5 17 -6 0 -9 7 -5 15 3 8 1 15 -4 15
-15 0 -12 17 6 34 14 14 12 19 -6 18 -3 0 -4 17 -2 38 4 35 2 38 -17 33 -12
-3 -31 3 -47 16 -19 15 -22 21 -10 21 18 0 22 25 6 35 -6 4 -8 10 -5 15 3 4
-4 6 -15 3 -11 -3 -21 0 -21 6 -2 15 -4 23 -14 44 -6 15 -10 16 -17 5 -6 -9
-8 -3 -3 17 3 17 6 36 7 43 1 7 8 10 16 7 9 -3 12 0 9 8 -3 7 3 13 12 14 16 1
46 -50 42 -71 -1 -4 6 -15 16 -23 13 -10 15 -16 6 -19 -7 -3 -13 -11 -13 -17
0 -5 3 -8 6 -5 3 4 21 0 40 -8 32 -13 34 -13 34 5 0 11 -6 24 -13 28 -7 4 -24
37 -37 73 -12 36 -29 75 -37 88 -7 12 -11 22 -9 22 3 0 1 13 -4 30 -8 28 -7
29 11 20 13 -8 19 -7 19 0 0 6 5 8 11 4 8 -4 8 -1 1 13 -9 15 -7 19 9 20 11 1
38 -20 68 -54 38 -43 55 -54 70 -50 12 3 21 1 21 -4 0 -6 6 -9 13 -8 6 1 27 1
45 0 30 -1 32 -2 18 -17 -21 -20 -20 -27 2 -15 9 5 37 7 62 5 28 -2 40 0 31 5
-7 5 -10 14 -7 20 4 6 13 8 19 4 6 -4 47 -8 90 -10 43 -1 86 -7 95 -13 10 -5
12 -10 5 -10 -28 0 -11 -17 17 -17 16 0 27 4 25 8 -3 3 28 5 68 4 62 -3 78 0
118 23 l47 26 -25 20 c-23 18 -26 18 -35 3 -10 -19 -63 -23 -73 -7 -4 6 -12 5
-21 -5 -12 -12 -43 -14 -162 -12 -81 1 -153 6 -161 11 -9 6 -17 3 -23 -8 -15
-27 -34 -18 -48 25 -11 31 -16 37 -22 25 -13 -24 -25 -19 -36 13 -13 36 -4 46
20 24 17 -15 18 -15 18 10 0 15 9 36 21 48 19 19 22 19 37 6 13 -12 21 -13 37
-4 23 13 72 19 130 16 60 -4 104 -1 170 8 64 9 102 6 111 -8z m801 -41 c-3 -8
-6 -5 -6 6 -1 11 2 17 5 13 3 -3 4 -12 1 -19z m-1742 -38 c3 -5 4 -10 1 -10
-2 0 -12 -3 -20 -6 -12 -5 -15 -2 -10 10 7 18 20 21 29 6z m75 -57 c0 -13 4
-22 9 -19 17 11 19 -46 3 -65 -19 -22 -33 -24 -50 -7 -9 9 -9 15 1 26 9 12 9
16 0 19 -7 2 -10 10 -7 18 3 7 1 23 -6 34 -8 15 -8 27 0 42 l11 20 20 -22 c10
-12 19 -33 19 -46z m1110 57 c0 -5 -2 -10 -4 -10 -3 0 -8 5 -11 10 -3 6 -1 10
4 10 6 0 11 -4 11 -10z m477 -42 c-3 -7 -5 -2 -5 12 0 14 2 19 5 13 2 -7 2
-19 0 -25z m108 -19 c4 -15 2 -30 -3 -33 -12 -7 -42 20 -42 36 0 6 10 0 22
-13 18 -20 20 -21 13 -4 -15 41 -18 60 -7 50 6 -5 14 -22 17 -36z m13 -84 c15
-14 23 -25 19 -25 -4 0 -20 11 -35 25 -15 14 -23 25 -19 25 4 0 20 -11 35 -25z
m37 5 c3 -5 1 -10 -4 -10 -6 0 -11 5 -11 10 0 6 2 10 4 10 3 0 8 -4 11 -10z
m-76 -55 c0 -5 -4 -3 -9 5 -5 8 -9 22 -9 30 0 16 17 -16 18 -35z m-1959 11 c0
-2 -7 -7 -16 -10 -8 -3 -12 -2 -9 4 6 10 25 14 25 6z m27 -28 c-7 -18 -19 -39
-27 -46 -13 -12 -13 -13 0 -6 8 4 11 3 7 -1 -12 -14 -39 -15 -34 -1 3 6 -1 20
-9 31 -17 23 -19 44 -3 28 6 -6 18 -9 25 -6 10 4 12 0 8 -11 -11 -28 5 -17 21
14 20 39 26 38 12 -2z m2001 2 c15 0 15 -2 2 -10 -23 -15 -30 -12 -29 13 0 12
3 16 6 10 2 -7 12 -13 21 -13z m-38 -35 c4 3 10 -2 14 -10 3 -9 0 -15 -9 -15
-8 0 -15 2 -15 4 0 2 -2 10 -3 18 -2 7 -2 10 0 5 3 -4 8 -5 13 -2z m-1962 -45
c-13 -10 -24 -17 -26 -15 -6 6 33 42 41 38 4 -3 -3 -13 -15 -23z m1950 -22 c5
-7 9 -33 7 -58 -2 -25 -5 -84 -7 -132 -1 -47 -6 -84 -9 -82 -4 2 -10 -8 -15
-24 -8 -28 -10 -37 -20 -89 -3 -18 -10 -33 -15 -33 -5 0 -9 -5 -9 -11 0 -6 -9
-24 -21 -40 -24 -34 -16 -39 12 -6 l18 22 1 -22 c0 -13 -5 -23 -11 -23 -5 0
-8 -4 -5 -9 3 -5 -3 -19 -13 -32 -10 -13 -21 -41 -24 -62 -5 -33 -4 -37 8 -27
12 10 15 9 15 -3 0 -8 -7 -20 -15 -27 -12 -10 -13 -16 -4 -27 7 -7 8 -17 4
-21 -4 -4 -10 -1 -12 6 -5 14 -23 16 -23 2 0 -5 12 -16 28 -24 22 -12 24 -16
11 -21 -14 -5 -15 -11 -4 -43 10 -29 10 -40 -1 -57 -17 -26 -21 -159 -5 -179
6 -8 9 -27 7 -42 -3 -15 0 -34 6 -41 6 -7 6 -13 2 -13 -5 0 -9 -15 -8 -34 1
-25 -2 -33 -11 -30 -7 3 -16 0 -21 -7 -4 -7 -3 -10 3 -6 20 13 22 -21 2 -44
-10 -12 -19 -25 -19 -29 0 -14 -70 -84 -86 -86 -9 -1 -19 -6 -22 -10 -4 -4 1
-4 11 -1 28 10 20 -2 -35 -54 -108 -101 -300 -222 -412 -258 -159 -52 -448
-39 -646 29 -202 69 -389 232 -586 512 -39 55 -41 61 -38 119 1 33 6 75 10 92
10 44 11 69 1 90 -5 11 -3 17 4 17 8 0 8 4 1 13 -6 7 -13 51 -16 97 -6 106 15
610 26 610 4 0 8 -4 8 -8 0 -5 11 -22 24 -37 14 -16 24 -31 23 -34 -2 -11 26
-56 46 -73 11 -10 16 -18 11 -18 -5 0 2 -7 14 -16 12 -8 20 -20 17 -25 -4 -5
-2 -9 3 -9 6 0 19 -18 31 -40 11 -22 18 -40 14 -40 -3 0 2 -9 12 -20 10 -11
23 -17 29 -14 6 3 2 -2 -8 -10 -11 -9 -15 -16 -8 -16 6 0 19 -13 28 -30 11
-18 21 -25 25 -19 5 8 8 8 13 0 4 -6 2 -11 -4 -11 -6 0 -8 -4 -5 -10 3 -6 -2
-8 -12 -4 -17 5 -17 4 1 -8 53 -37 67 -51 57 -57 -14 -9 1 -63 19 -69 9 -3 11
1 7 11 -4 10 0 14 11 13 9 -2 17 -7 17 -12 0 -18 16 -34 33 -34 9 0 25 -13 36
-28 12 -19 28 -29 49 -30 l30 -3 -24 20 c-30 26 -15 27 17 2 13 -10 20 -21 17
-25 -3 -3 7 -6 23 -6 22 0 26 -3 14 -10 -13 -8 -12 -10 4 -10 11 0 17 -3 13
-6 -3 -3 7 -17 24 -31 23 -20 32 -23 43 -13 12 9 14 8 10 -7 -4 -12 5 -24 25
-36 17 -10 31 -22 31 -28 0 -5 7 -9 15 -9 8 0 15 -9 15 -20 0 -13 5 -18 15
-14 11 5 13 2 8 -11 -5 -15 -2 -17 15 -13 12 3 29 0 39 -8 10 -7 28 -14 40
-14 12 0 24 -4 27 -9 3 -4 25 -14 50 -21 31 -8 48 -20 57 -38 10 -21 13 -23
16 -10 3 12 12 16 33 13 16 -2 34 -6 40 -10 6 -3 10 3 10 15 0 11 6 23 13 25
6 2 26 10 42 16 17 7 39 11 50 10 17 -2 17 0 5 8 -12 9 -10 11 12 11 31 0 97
39 98 58 0 6 6 12 13 12 6 0 19 4 27 10 12 7 11 12 -9 29 -20 17 -22 23 -11
36 7 8 19 15 26 15 8 0 14 5 14 11 0 5 5 7 12 3 8 -5 5 -11 -10 -17 -12 -6
-22 -17 -22 -25 0 -11 3 -12 13 -3 8 6 16 8 20 5 3 -3 8 4 12 15 3 12 11 21
16 21 5 0 9 7 9 15 0 8 5 15 10 15 6 0 10 9 10 21 0 11 4 18 9 15 5 -3 8 2 7
11 0 9 5 18 12 20 6 3 12 -3 13 -14 0 -16 1 -16 9 2 5 11 9 16 9 10 1 -5 6 -3
11 5 8 13 10 13 10 -2 0 -9 -6 -19 -12 -21 -8 -4 -7 -6 3 -6 10 -1 19 9 23 24
4 14 11 25 16 25 6 0 10 7 10 15 0 17 18 52 38 73 7 8 11 20 8 28 -5 13 11 32
29 33 6 1 10 7 10 14 0 6 -6 11 -13 9 -17 -3 -15 3 5 19 14 12 16 12 8 0 -5
-9 -4 -12 2 -8 17 11 24 50 8 43 -9 -3 -12 0 -9 9 3 7 15 15 26 18 11 3 17 10
14 16 -4 5 3 12 14 16 23 7 23 46 0 57 -12 5 -12 7 3 7 22 1 68 51 62 69 -2 6
0 12 5 12 6 0 10 7 10 15 0 8 5 15 10 15 6 0 10 7 10 15 0 9 7 18 15 21 8 4
15 17 15 31 0 13 4 22 9 18 5 -3 13 5 16 17 4 13 15 32 24 42 15 18 15 19 -2
13 -11 -4 -16 -3 -12 4 4 5 14 7 24 4 14 -4 17 1 16 35 -1 41 5 49 23 28z
m-264 -33 c3 -8 1 -15 -4 -15 -6 0 -10 7 -10 15 0 8 2 15 4 15 2 0 6 -7 10
-15z m221 4 c11 -16 1 -19 -13 -3 -7 8 -8 14 -3 14 5 0 13 -5 16 -11z m-1515
-69 c0 -11 -4 -20 -9 -20 -7 0 -8 17 -2 38 4 10 11 -2 11 -18z m1037 -102 c-3
-8 -6 -5 -6 6 -1 11 2 17 5 13 3 -3 4 -12 1 -19z m21 -53 c-3 -3 -9 2 -12 12
-6 14 -5 15 5 6 7 -7 10 -15 7 -18z m-274 -161 c4 -10 1 -14 -6 -12 -15 5 -23
28 -10 28 5 0 13 -7 16 -16z m-467 -30 c-3 -3 -12 -4 -19 -1 -8 3 -5 6 6 6 11
1 17 -2 13 -5z m865 -136 c-7 -7 -12 -8 -12 -2 0 6 3 14 7 17 3 4 9 5 12 2 2
-3 -1 -11 -7 -17z m-2 -65 c0 -22 -17 -49 -25 -41 -8 8 5 58 16 58 5 0 9 -8 9
-17z m-965 -83 c-3 -5 -12 -10 -18 -10 -7 0 -6 4 3 10 19 12 23 12 15 0z m51
-37 c16 -22 18 -43 3 -43 -6 0 -8 7 -5 15 3 9 -1 18 -9 21 -8 4 -15 10 -15 15
0 14 12 10 26 -8z m-16 -23 c0 -5 -4 -10 -10 -10 -5 0 -10 5 -10 10 0 6 5 10
10 10 6 0 10 -4 10 -10z m-2440 -534 c0 -2 -9 -6 -20 -9 -11 -3 -20 -1 -20 4
0 5 9 9 20 9 11 0 20 -2 20 -4z m4995 -629 c33 -47 13 -101 -40 -111 -24 -5
-33 -11 -28 -19 4 -7 0 -7 -10 2 -9 7 -23 11 -31 8 -22 -9 -49 39 -40 71 4 15
6 31 5 35 -1 5 2 6 7 3 5 -3 15 6 22 19 7 13 20 26 29 28 26 5 70 -13 86 -36z
m-4233 -534 c-10 -4 -10 -8 -1 -19 6 -8 8 -14 3 -14 -20 0 37 -30 61 -32 32
-3 30 -32 -3 -36 -31 -5 -85 36 -79 59 3 11 1 17 -4 13 -15 -9 -10 14 7 31 9
9 19 13 23 9 3 -4 0 -9 -7 -11z m62 -19 c9 -8 16 -21 16 -27 0 -7 -5 -4 -11 6
-6 10 -20 22 -32 27 -16 6 -18 9 -5 9 9 1 24 -6 32 -15z m3291 -604 c16 -7 12
-8 -17 -7 -20 1 -34 5 -31 10 5 9 22 8 48 -3z m791 -9 c7 -3 51 -41 98 -85
l86 -78 0 -100 0 -99 -32 3 c-18 2 -31 8 -28 13 3 6 13 9 23 8 15 -2 17 7 17
85 l0 87 -88 77 -87 77 -132 2 c-73 1 -137 3 -143 4 -5 1 -42 3 -81 4 -47 1
-68 5 -64 12 7 11 409 2 431 -10z m-716 -27 c0 -36 -69 -70 -119 -59 -36 8
-61 32 -40 39 37 11 79 15 74 6 -4 -6 7 -7 27 -3 18 3 35 10 36 15 4 9 22 11
22 2z m610 -184 c0 -22 -4 -40 -10 -40 -5 0 -10 14 -10 30 l0 30 -120 0 c-73
0 -120 4 -120 10 0 6 50 10 130 10 l130 0 0 -40z m-265 -10 c3 -6 -1 -7 -9 -4
-18 7 -21 14 -7 14 6 0 13 -4 16 -10z m265 -80 c0 -5 -2 -10 -4 -10 -3 0 -8 5
-11 10 -3 6 -1 10 4 10 6 0 11 -4 11 -10z m-36 -36 c6 -15 4 -15 -11 -3 -10 7
-20 15 -22 16 -2 2 3 3 11 3 9 0 19 -7 22 -16z m155 -27 c13 -20 11 -20 -15 3
-16 14 -33 28 -39 33 -5 5 1 3 16 -3 14 -6 31 -21 38 -33z m-334 13 c-3 -5
-12 -10 -18 -10 -7 0 -6 4 3 10 19 12 23 12 15 0z m-15 -34 c0 -2 -7 -7 -16
-10 -8 -3 -12 -2 -9 4 6 10 25 14 25 6z m97 -18 c2 -17 0 -19 -7 -8 -5 8 -6
18 -4 22 8 12 10 10 11 -14z m152 -12 c-3 -3 -11 5 -18 17 -13 21 -12 21 5 5
10 -10 16 -20 13 -22z m-306 -1 c-3 -9 -8 -14 -10 -11 -3 3 -2 9 2 15 9 16 15
13 8 -4z m203 -12 c-7 -7 -26 7 -26 19 0 6 6 6 15 -2 9 -7 13 -15 11 -17z m79
7 c3 -5 1 -10 -4 -10 -6 0 -11 5 -11 10 0 6 2 10 4 10 3 0 8 -4 11 -10z m-62
-27 c-7 -2 -19 -2 -25 0 -7 3 -2 5 12 5 14 0 19 -2 13 -5z m177 -13 c0 -5 -5
-10 -11 -10 -5 0 -7 5 -4 10 3 6 8 10 11 10 2 0 4 -4 4 -10z m-220 -24 c0 -2
-7 -9 -15 -16 -13 -11 -14 -10 -9 4 5 14 24 23 24 12z m173 -18 c40 -19 33
-27 -13 -16 -22 6 -40 14 -40 19 0 13 21 11 53 -3z m-289 -19 c-4 -8 1 -9 17
-5 20 6 21 5 6 -4 -19 -12 -41 -4 -32 11 4 5 8 9 11 9 3 0 2 -5 -2 -11z m209
-12 c3 -8 -1 -14 -8 -14 -7 0 -11 6 -8 14 6 16 10 16 16 0z m41 -12 c-4 -8
-11 -15 -16 -15 -6 0 -5 6 2 15 7 8 14 15 16 15 2 0 1 -7 -2 -15z m-99 -15
c-3 -5 -14 -10 -23 -9 -14 0 -13 2 3 9 27 11 27 11 20 0z m-205 -30 c-13 -9
-12 -13 8 -29 12 -11 22 -23 22 -27 0 -4 -14 5 -30 21 -22 21 -27 31 -18 37
19 11 36 9 18 -2z m46 -5 c-3 -23 -12 -26 -13 -5 -1 11 2 20 7 20 4 0 7 -7 6
-15z m50 0 c-11 -8 -15 -19 -11 -27 6 -10 5 -10 -5 -1 -11 10 -11 15 0 28 7 8
18 15 24 15 6 0 3 -7 -8 -15z m217 -7 c18 -9 23 -33 8 -42 -5 -3 -22 1 -37 9
-16 8 -37 15 -46 15 -11 0 -18 8 -18 20 0 19 4 20 38 14 20 -4 45 -11 55 -16z
m82 -17 c3 -5 2 -12 -3 -15 -5 -3 -9 1 -9 9 0 17 3 19 12 6z m-270 -21 c3 -5
1 -10 -4 -10 -6 0 -11 5 -11 10 0 6 2 10 4 10 3 0 8 -4 11 -10z m42 -21 c1
-19 1 -20 -4 -4 -3 11 -10 24 -17 28 -7 6 -6 7 4 4 8 -2 16 -14 17 -28z m-40
-14 c0 -8 -5 -15 -11 -15 -6 0 -4 -5 4 -10 13 -8 13 -10 -1 -10 -9 0 -24 9
-34 20 -10 11 -13 20 -7 20 6 0 13 -6 16 -12 3 -9 8 -8 16 5 13 21 17 21 17 2z
m112 -30 c19 -10 31 -11 38 -4 16 16 25 -5 10 -24 -18 -25 -97 -2 -97 28 0 24
13 42 18 25 2 -6 16 -17 31 -25z m-67 -19 c3 -31 22 -53 33 -36 4 7 12 7 26 0
11 -6 25 -8 32 -4 9 5 9 3 -1 -7 -10 -11 -16 -11 -32 -1 -13 8 -21 8 -26 1
-11 -18 -44 22 -44 54 0 37 9 31 12 -7z m-32 -6 c0 -5 -2 -10 -4 -10 -3 0 -8
5 -11 10 -3 6 -1 10 4 10 6 0 11 -4 11 -10z m180 -14 c0 -3 -4 -8 -10 -11 -5
-3 -10 -1 -10 4 0 6 5 11 10 11 6 0 10 -2 10 -4z"/>
<path d="M4307 4570 c-3 -11 -1 -20 4 -20 5 0 9 9 9 20 0 11 -2 20 -4 20 -2 0
-6 -9 -9 -20z"/>
<path d="M3605 4480 c4 -6 11 -8 16 -5 14 9 11 15 -7 15 -8 0 -12 -5 -9 -10z"/>
<path d="M3660 4293 c0 -6 8 -17 18 -24 16 -13 16 -13 2 6 -8 11 -16 22 -17
24 -2 2 -3 0 -3 -6z"/>
<path d="M4600 4201 c0 -6 5 -13 10 -16 6 -3 10 1 10 9 0 9 -4 16 -10 16 -5 0
-10 -4 -10 -9z"/>
<path d="M4275 4150 c3 -5 8 -10 11 -10 2 0 4 5 4 10 0 6 -5 10 -11 10 -5 0
-7 -4 -4 -10z"/>
<path d="M3730 4129 c0 -5 5 -7 10 -4 6 3 10 8 10 11 0 2 -4 4 -10 4 -5 0 -10
-5 -10 -11z"/>
<path d="M4280 4114 c0 -9 5 -14 12 -12 18 6 21 28 4 28 -9 0 -16 -7 -16 -16z"/>
<path d="M3778 4113 c7 -3 16 -2 19 1 4 3 -2 6 -13 5 -11 0 -14 -3 -6 -6z"/>
<path d="M4200 4100 c-40 -24 -159 -63 -187 -62 -23 1 -33 -3 -33 -13 0 -18
-20 -20 -21 -2 0 6 -4 2 -9 -10 -7 -18 -17 -23 -47 -23 -64 0 -113 12 -113 26
0 19 -17 17 -30 -3 -11 -17 -11 -17 -6 -1 4 13 -4 20 -32 28 -47 13 -61 13
-42 -1 11 -8 12 -12 3 -15 -9 -4 -9 -11 -1 -30 6 -13 15 -24 20 -24 7 0 42
-27 74 -57 10 -10 13 -10 17 0 4 9 6 9 6 0 1 -21 21 -15 21 6 0 14 5 18 21 14
11 -3 18 -11 15 -18 -6 -18 26 -45 53 -45 12 0 24 6 27 14 4 11 12 12 34 4 38
-13 78 6 59 28 -7 8 -18 13 -26 10 -8 -3 -12 -2 -9 3 3 5 25 14 50 20 24 6 46
17 49 24 3 8 19 17 36 20 37 8 76 41 67 56 -4 7 -1 8 8 5 9 -3 16 -1 16 5 0 6
-4 11 -10 11 -5 0 -10 5 -10 11 0 7 9 9 21 6 16 -4 18 -3 8 9 -6 8 -12 14 -13
13 0 0 -8 -4 -16 -9z m-20 -47 c-1 -11 -68 -52 -74 -46 -3 4 9 17 26 30 33 24
48 29 48 16z m-160 -143 c0 -5 -5 -10 -11 -10 -5 0 -7 5 -4 10 3 6 8 10 11 10
2 0 4 -4 4 -10z"/>
<path d="M4255 4079 c-11 -17 -2 -18 19 -3 17 12 17 14 4 14 -9 0 -20 -5 -23
-11z"/>
<path d="M4507 4070 c3 -11 9 -17 15 -14 5 3 4 12 -3 20 -16 19 -18 18 -12 -6z"/>
<path d="M3295 4030 c-3 -5 -1 -10 4 -10 6 0 11 5 11 10 0 6 -2 10 -4 10 -3 0
-8 -4 -11 -10z"/>
<path d="M4520 4029 c0 -5 5 -7 10 -4 6 3 10 8 10 11 0 2 -4 4 -10 4 -5 0 -10
-5 -10 -11z"/>
<path d="M3511 3974 c0 -11 3 -14 6 -6 3 7 2 16 -1 19 -3 4 -6 -2 -5 -13z"/>
<path d="M4243 3983 c-20 -7 -15 -23 6 -23 25 0 47 25 23 27 -9 0 -23 -2 -29
-4z"/>
<path d="M3440 3955 c0 -11 34 -44 42 -39 11 7 -14 44 -29 44 -7 0 -13 -2 -13
-5z"/>
<path d="M3575 3950 c3 -5 8 -10 11 -10 2 0 4 5 4 10 0 6 -5 10 -11 10 -5 0
-7 -4 -4 -10z"/>
<path d="M3600 3930 c0 -5 7 -7 15 -4 8 4 15 8 15 10 0 2 -7 4 -15 4 -8 0 -15
-4 -15 -10z"/>
<path d="M3715 3910 c-3 -5 -1 -10 4 -10 6 0 11 5 11 10 0 6 -2 10 -4 10 -3 0
-8 -4 -11 -10z"/>
<path d="M3345 3900 c3 -5 11 -10 16 -10 6 0 7 5 4 10 -3 6 -11 10 -16 10 -6
0 -7 -4 -4 -10z"/>
<path d="M4455 3901 c-3 -5 -1 -12 5 -16 5 -3 10 1 10 9 0 18 -6 21 -15 7z"/>
<path d="M3790 3869 c0 -5 5 -7 10 -4 6 3 10 8 10 11 0 2 -4 4 -10 4 -5 0 -10
-5 -10 -11z"/>
<path d="M4432 3871 c2 -7 7 -12 11 -12 12 1 9 15 -3 20 -7 2 -11 -2 -8 -8z"/>
<path d="M3686 3862 c-8 -13 20 -41 41 -39 18 1 19 4 10 24 -10 22 -41 31 -51
15z m34 -6 c0 -11 -19 -15 -25 -6 -3 5 1 10 9 10 9 0 16 -2 16 -4z"/>
<path d="M3928 3853 c6 -2 18 -2 25 0 6 3 1 5 -13 5 -14 0 -19 -2 -12 -5z"/>
<path d="M4378 3833 c7 -3 16 -2 19 1 4 3 -2 6 -13 5 -11 0 -14 -3 -6 -6z"/>
<path d="M3448 3793 c7 -3 16 -2 19 1 4 3 -2 6 -13 5 -11 0 -14 -3 -6 -6z"/>
<path d="M3772 3788 c2 -6 10 -14 16 -16 7 -2 10 2 6 12 -7 18 -28 22 -22 4z"/>
<path d="M3438 3763 c7 -3 16 -2 19 1 4 3 -2 6 -13 5 -11 0 -14 -3 -6 -6z"/>
<path d="M3478 3713 c7 -3 16 -2 19 1 4 3 -2 6 -13 5 -11 0 -14 -3 -6 -6z"/>
<path d="M4290 3659 c0 -5 5 -7 10 -4 6 3 10 8 10 11 0 2 -4 4 -10 4 -5 0 -10
-5 -10 -11z"/>
<path d="M4241 3635 c-1 -12 -7 -27 -13 -35 -11 -12 -10 -12 3 -2 9 6 19 9 22
5 9 -9 8 7 -3 32 -9 20 -9 20 -9 0z"/>
<path d="M3548 3633 c-10 -2 -18 -12 -18 -20 0 -14 3 -14 20 2 17 15 26 28 18
24 -2 -1 -11 -3 -20 -6z"/>
<path d="M3590 3632 c0 -5 6 -17 14 -27 13 -18 14 -18 9 8 -5 24 -23 39 -23
19z"/>
<path d="M4285 3630 c-3 -5 -2 -10 4 -10 5 0 13 5 16 10 3 6 2 10 -4 10 -5 0
-13 -4 -16 -10z"/>
<path d="M4040 3524 c0 -8 5 -12 10 -9 6 4 8 11 5 16 -9 14 -15 11 -15 -7z"/>
<path d="M4905 3687 c-4 -10 -5 -21 -1 -24 10 -10 18 4 13 24 -4 17 -4 17 -12
0z"/>
<path d="M4731 3496 c-6 -14 -15 -26 -21 -26 -6 0 -8 -5 -4 -11 4 -8 9 -7 15
2 5 8 9 10 10 4 0 -5 5 3 10 19 11 38 3 47 -10 12z"/>
<path d="M3200 3481 c5 -11 15 -23 21 -27 6 -3 3 5 -6 20 -20 30 -30 35 -15 7z"/>
<path d="M3272 3359 c2 -18 9 -34 16 -37 11 -3 12 0 2 18 -11 20 -10 21 10 15
27 -9 19 9 -11 26 -19 10 -20 8 -17 -22z"/>
<path d="M4593 3223 c-7 -2 -13 -11 -13 -19 0 -12 4 -12 20 -2 31 20 26 35 -7
21z"/>
<path d="M3525 3150 c3 -5 15 -10 26 -10 11 0 29 -9 41 -20 12 -10 25 -17 31
-13 5 3 -4 13 -19 23 -36 22 -88 35 -79 20z"/>
<path d="M4720 3005 c-7 -9 -11 -18 -8 -20 7 -8 38 5 38 15 0 17 -18 19 -30 5z"/>
<path d="M4303 2983 c-16 -6 -17 -33 -3 -33 11 0 26 28 19 34 -2 2 -10 1 -16
-1z"/>
<path d="M4766 2965 c-3 -9 0 -15 9 -15 8 0 15 7 15 15 0 8 -4 15 -9 15 -5 0
-11 -7 -15 -15z"/>
<path d="M4125 2910 c-3 -5 -1 -10 4 -10 6 0 11 5 11 10 0 6 -2 10 -4 10 -3 0
-8 -4 -11 -10z"/>
<path d="M3934 2888 c0 -11 4 -14 10 -8 6 6 18 10 28 10 10 0 18 4 18 8 0 5
-13 9 -28 9 -20 0 -28 -5 -28 -19z"/>
<path d="M4815 2860 c-3 -5 -1 -10 4 -10 6 0 11 5 11 10 0 6 -2 10 -4 10 -3 0
-8 -4 -11 -10z"/>
<path d="M4769 2673 c-13 -16 -12 -17 4 -4 16 13 21 21 13 21 -2 0 -10 -8 -17
-17z"/>
<path d="M6092 1973 c-16 -14 -18 -23 -12 -40 5 -13 16 -23 24 -23 9 0 13 6
10 14 -3 8 -1 17 5 21 6 3 14 -1 17 -9 7 -18 24 -12 24 9 0 15 -26 45 -40 45
-4 0 -17 -8 -28 -17z"/>
<path d="M2530 4910 c-34 -7 -34 -7 13 -9 30 0 46 3 42 9 -3 6 -9 9 -13 9 -4
-1 -23 -5 -42 -9z"/>
<path d="M3625 4910 c3 -5 11 -10 16 -10 6 0 7 5 4 10 -3 6 -11 10 -16 10 -6
0 -7 -4 -4 -10z"/>
<path d="M7776 4891 c-7 -10 27 -21 67 -21 37 0 34 16 -4 24 -43 8 -57 8 -63
-3z"/>
<path d="M1368 4883 c6 -2 18 -2 25 0 6 3 1 5 -13 5 -14 0 -19 -2 -12 -5z"/>
<path d="M660 4850 c0 -5 7 -10 16 -10 8 0 12 5 9 10 -3 6 -10 10 -16 10 -5 0
-9 -4 -9 -10z"/>
<path d="M783 4818 c-85 -16 -63 -29 35 -22 48 3 89 8 91 10 18 17 -60 25
-126 12z"/>
<path d="M1385 4810 c-3 -5 3 -10 14 -10 12 0 21 5 21 10 0 6 -6 10 -14 10 -8
0 -18 -4 -21 -10z"/>
<path d="M1710 4809 c-24 -6 -24 -7 -5 -15 23 -10 172 -11 182 -1 14 15 -12
22 -80 22 -40 1 -83 -2 -97 -6z"/>
<path d="M1000 4801 c0 -16 28 -20 40 -5 10 12 8 14 -14 14 -14 0 -26 -4 -26
-9z"/>
<path d="M1123 4803 c9 -2 23 -2 30 0 6 3 -1 5 -18 5 -16 0 -22 -2 -12 -5z"/>
<path d="M7550 4776 c0 -2 7 -6 15 -10 8 -3 15 -1 15 4 0 6 -7 10 -15 10 -8 0
-15 -2 -15 -4z"/>
<path d="M2743 4733 c-18 -7 -16 -43 2 -43 9 0 15 9 15 25 0 14 -1 25 -2 24
-2 0 -9 -3 -15 -6z"/>
<path d="M5264 4727 c-6 -17 2 -37 16 -37 15 0 19 29 5 40 -12 10 -16 9 -21
-3z"/>
<path d="M0 4700 c0 -5 5 -10 11 -10 5 0 7 5 4 10 -3 6 -8 10 -11 10 -2 0 -4
-4 -4 -10z"/>
<path d="M5116 4697 c3 -10 9 -15 12 -12 3 3 0 11 -7 18 -10 9 -11 8 -5 -6z"/>
<path d="M2771 4664 c0 -11 3 -14 6 -6 3 7 2 16 -1 19 -3 4 -6 -2 -5 -13z"/>
<path d="M5119 4657 c8 -9 11 -20 7 -24 -3 -3 1 -17 9 -30 14 -21 14 -24 0
-29 -8 -3 -15 -12 -15 -20 0 -11 8 -11 48 1 60 18 122 85 78 85 -8 0 -16 5
-18 11 -2 5 -11 7 -21 4 -9 -4 -15 -10 -12 -15 9 -15 -47 -1 -68 17 -20 16
-20 16 -8 0z"/>
<path d="M308 4653 c7 -3 16 -2 19 1 4 3 -2 6 -13 5 -11 0 -14 -3 -6 -6z"/>
<path d="M4770 4620 c0 -5 5 -10 10 -10 6 0 10 5 10 10 0 6 -4 10 -10 10 -5 0
-10 -4 -10 -10z"/>
<path d="M1705 4610 c3 -5 25 -10 48 -9 33 0 38 2 22 9 -28 12 -78 12 -70 0z"/>
<path d="M7798 4593 c6 -2 18 -2 25 0 6 3 1 5 -13 5 -14 0 -19 -2 -12 -5z"/>
<path d="M1398 4573 c12 -2 32 -2 45 0 12 2 2 4 -23 4 -25 0 -35 -2 -22 -4z"/>
<path d="M2676 4540 c15 -25 66 -60 88 -60 3 0 10 9 16 20 8 15 7 23 -7 37
-10 10 -26 17 -36 15 -9 -2 -17 2 -17 10 0 10 -3 9 -10 -2 -5 -8 -10 -10 -10
-5 0 6 -5 3 -10 -5 -8 -13 -10 -12 -10 3 0 9 -5 17 -11 17 -5 0 -2 -13 7 -30z"/>
<path d="M4860 4560 c-8 -5 -12 -11 -9 -14 2 -3 11 -1 19 4 8 5 12 11 9 14 -2
3 -11 1 -19 -4z"/>
<path d="M0 4505 c0 -10 7 -15 18 -13 21 4 19 22 -2 26 -10 2 -16 -3 -16 -13z"/>
<path d="M127 4497 c-54 -17 -36 -27 44 -27 70 0 94 11 60 29 -25 14 -55 13
-104 -2z"/>
<path d="M4875 4428 c-1 -21 0 -38 0 -38 6 0 45 39 45 44 0 3 -7 6 -16 6 -9 0
-14 6 -11 13 3 8 0 14 -6 14 -7 0 -12 -17 -12 -39z"/>
<path d="M5099 4428 c0 -13 -2 -35 -4 -50 -2 -16 0 -28 5 -28 4 0 10 23 12 50
1 28 0 50 -4 50 -5 0 -8 -10 -9 -22z"/>
<path d="M5059 4344 c-9 -12 -10 -15 -1 -10 15 9 15 4 -1 -28 -8 -14 -17 -22
-21 -18 -4 4 -2 -5 4 -20 8 -16 20 -26 31 -25 21 1 25 12 9 22 -5 3 -10 1 -10
-6 0 -7 -2 -10 -5 -7 -10 10 15 59 26 52 8 -4 9 1 4 17 -11 36 -20 42 -36 23z"/>
<path d="M2890 4325 c0 -8 4 -15 10 -15 5 0 7 7 4 15 -4 8 -8 15 -10 15 -2 0
-4 -7 -4 -15z"/>
<path d="M4996 4303 c-6 -14 -5 -15 5 -6 7 7 10 15 7 18 -3 3 -9 -2 -12 -12z"/>
<path d="M0 4290 c0 -5 9 -10 21 -10 11 0 17 5 14 10 -3 6 -13 10 -21 10 -8 0
-14 -4 -14 -10z"/>
<path d="M2882 4265 c0 -16 2 -22 5 -12 2 9 2 23 0 30 -3 6 -5 -1 -5 -18z"/>
<path d="M5020 4245 c-7 -9 -11 -18 -8 -20 3 -3 11 1 18 10 7 9 11 18 8 20 -3
3 -11 -1 -18 -10z"/>
<path d="M1171 4206 c-9 -11 -5 -15 21 -18 18 -3 44 -2 58 2 l25 7 -22 11
c-29 16 -68 15 -82 -2z"/>
<path d="M2860 4205 c0 -8 4 -15 10 -15 5 0 7 7 4 15 -4 8 -8 15 -10 15 -2 0
-4 -7 -4 -15z"/>
<path d="M2883 4186 c-10 -11 -9 -15 2 -20 9 -3 15 0 15 9 0 7 8 16 18 18 14
4 14 5 -3 5 -11 1 -25 -5 -32 -12z"/>
<path d="M5026 4182 c-3 -6 -1 -14 5 -17 14 -9 20 -2 10 14 -6 8 -11 9 -15 3z"/>
<path d="M5665 4180 c-3 -5 -1 -10 4 -10 6 0 11 5 11 10 0 6 -2 10 -4 10 -3 0
-8 -4 -11 -10z"/>
<path d="M5692 4179 c2 -6 8 -10 13 -10 5 0 11 4 13 10 2 6 -4 11 -13 11 -9 0
-15 -5 -13 -11z"/>
<path d="M5735 4180 c3 -5 16 -10 28 -10 18 0 19 2 7 10 -20 13 -43 13 -35 0z"/>
<path d="M7398 4174 c-3 -3 -30 -8 -59 -11 -29 -3 -64 -9 -78 -13 -23 -8 -22
-9 14 -11 81 -5 131 -5 173 -1 l43 5 -28 18 c-28 19 -55 24 -65 13z"/>
<path d="M1080 4163 c-19 -3 -39 -8 -45 -13 -5 -4 -26 -11 -45 -15 -19 -5 -29
-10 -22 -12 6 -3 12 -11 12 -19 0 -12 40 -20 73 -15 4 0 7 -3 7 -9 0 -5 22
-16 50 -24 44 -13 55 -13 96 1 31 10 44 20 40 29 -3 8 -1 14 4 14 6 0 10 -4
10 -9 0 -5 23 -8 50 -7 74 2 61 21 -17 24 -46 2 -70 8 -78 19 -10 14 -82 45
-95 41 -3 -1 -21 -3 -40 -5z"/>
<path d="M5010 4150 c0 -5 7 -10 16 -10 8 0 12 5 9 10 -3 6 -10 10 -16 10 -5
0 -9 -4 -9 -10z"/>
<path d="M930 4120 c0 -5 5 -10 10 -10 6 0 10 5 10 10 0 6 -4 10 -10 10 -5 0
-10 -4 -10 -10z"/>
<path d="M1808 4097 c-60 -17 -44 -27 37 -24 77 3 100 11 75 27 -19 12 -64 11
-112 -3z"/>
<path d="M1720 4080 c-13 -8 -12 -10 3 -10 9 0 17 5 17 10 0 12 -1 12 -20 0z"/>
<path d="M691 3976 c2 -2 30 -7 63 -11 41 -5 56 -3 52 4 -4 6 -32 11 -63 11
-31 0 -54 -2 -52 -4z"/>
<path d="M1778 3825 c-3 -4 -30 -8 -59 -10 -68 -4 -71 -21 -4 -17 75 3 126 13
119 23 -6 10 -47 12 -56 4z"/>
<path d="M1428 3803 c7 -3 16 -2 19 1 4 3 -2 6 -13 5 -11 0 -14 -3 -6 -6z"/>
<path d="M0 3750 c0 -5 7 -10 15 -10 8 0 15 5 15 10 0 6 -7 10 -15 10 -8 0
-15 -4 -15 -10z"/>
<path d="M235 3735 c-29 -14 -29 -14 33 -15 49 0 62 3 62 15 0 19 -53 19 -95
0z"/>
<path d="M1098 3723 c7 -3 16 -2 19 1 4 3 -2 6 -13 5 -11 0 -14 -3 -6 -6z"/>
<path d="M6571 3713 c-19 -8 -48 -13 -63 -11 -15 3 -28 3 -28 1 0 -9 55 -23
69 -17 9 4 32 6 52 5 24 -2 38 3 42 12 12 31 -17 34 -72 10z"/>
<path d="M13 3713 c9 -2 25 -2 35 0 9 3 1 5 -18 5 -19 0 -27 -2 -17 -5z"/>
<path d="M6780 3716 c0 -8 51 -13 56 -5 3 5 -9 9 -25 9 -17 0 -31 -2 -31 -4z"/>
<path d="M6940 3702 c0 -13 39 -37 75 -46 74 -18 81 -18 105 3 l25 20 -38 1
c-21 0 -46 4 -55 9 -27 15 -112 25 -112 13z"/>
<path d="M605 3680 c-6 -10 34 -30 60 -30 19 0 29 19 13 24 -40 13 -67 15 -73
6z"/>
<path d="M783 3676 c6 -15 -71 -46 -115 -46 -13 0 -43 -6 -67 -14 -53 -15 -39
-30 22 -21 23 3 76 1 117 -3 43 -5 85 -5 99 0 l24 9 -22 22 c-29 32 -27 37 22
38 l42 1 -40 13 c-55 18 -89 19 -82 1z"/>
<path d="M6458 3673 c-29 -7 -20 -30 15 -37 17 -3 52 -10 77 -15 32 -7 49 -6
59 2 15 13 21 13 30 0 3 -4 35 -3 71 3 62 11 64 12 37 23 -36 14 -70 15 -62 0
5 -7 -5 -8 -28 -4 -20 4 -54 8 -77 9 -22 1 -46 8 -52 14 -12 12 -37 14 -70 5z"/>
<path d="M7790 3670 c-9 -6 -10 -10 -3 -10 6 0 15 5 18 10 8 12 4 12 -15 0z"/>
<path d="M7533 3659 c11 -7 23 -7 35 0 14 9 11 10 -18 10 -29 0 -32 -1 -17
-10z"/>
<path d="M7248 3649 c-6 -4 -6 -9 -1 -12 13 -8 134 -6 158 3 19 7 18 8 -5 14
-30 7 -137 4 -152 -5z"/>
<path d="M1232 3620 c-7 -11 -20 -20 -30 -21 -9 0 3 -6 28 -13 42 -11 124 -5
139 10 3 3 -5 14 -19 24 -35 27 -101 27 -118 0z"/>
<path d="M6756 3611 c-10 -15 22 -21 69 -12 68 13 66 21 -3 21 -33 0 -63 -4
-66 -9z"/>
<path d="M510 3600 c-13 -9 -13 -10 0 -10 8 0 22 5 30 10 13 9 13 10 0 10 -8
0 -22 -5 -30 -10z"/>
<path d="M7766 1450 c17 -17 164 -17 164 0 0 6 -36 10 -87 10 -57 0 -84 -3
-77 -10z"/>
</g>
</svg>
